<?xml version="1.0"?>
<svg version="1.1" xmlns="http://www.w3.org/2000/svg" width="200px" height="40px" style=""><path fill="#f70a0a" d="M50.92333984375,34.41015625q0.65087890625-2.95166015625,1.876953125-5.64599609375t2.52783203125-5.388671875q-0.71142578125-2.3916015625-1.4833984375-4.896728515625t-1.86181640625-4.745361328125q-0.12109375-0.0908203125-0.249755859375-0.22705078125t-0.128662109375-0.302734375q0-0.2119140625,0.174072265625-0.34814453125t0.40869140625-0.219482421875t0.484375-0.113525390625t0.401123046875-0.0302734375q1.271484375,0,1.83154296875,1.1806640625q0.62060546875,1.33203125,1.157958984375,2.732177734375t1.036865234375,2.792724609375q0.181640625-0.40869140625,0.431396484375-1.10498046875t0.52978515625-1.46826171875t0.62060546875-1.566650390625t0.74169921875-1.445556640625t0.885498046875-1.052001953125t1.04443359375-0.401123046875t0.7265625,0.10595703125t0.13623046875,0.295166015625t-0.204345703125,0.416259765625t-0.264892578125,0.484375q-0.2724609375,0.65087890625-0.658447265625,1.763427734375t-0.855224609375,2.399169921875t-0.976318359375,2.61865234375t-1.036865234375,2.3916015625q1.08984375,3.572265625,1.80126953125,7.212646484375t1.634765625,7.258056640625q0.0908203125,0.34814453125,0.280029296875,0.734130859375t0.189208984375,0.734130859375q0,0.2119140625-0.204345703125,0.3330078125t-0.46923828125,0.204345703125t-0.522216796875,0.113525390625t-0.423828125,0.0302734375q-0.80224609375,0-1.248779296875-0.355712890625t-0.71142578125-0.900634765625t-0.37841796875-1.19580078125t-0.204345703125-1.271484375q-0.37841796875-2.13427734375-0.794677734375-4.260986328125t-0.930908203125-4.260986328125q-0.46923828125,1.0595703125-0.794677734375,1.9677734375t-0.60546875,1.778564453125t-0.544921875,1.755859375t-0.597900390625,1.899658203125q-0.1513671875,0.43896484375-0.5751953125,0.52978515625t-0.787109375,0.0908203125q-0.37841796875,0-0.809814453125-0.0908203125t-0.597900390625-0.52978515625z M65.343637695313,25.94873046875q0-0.62060546875,0.36328125-1.067138671875t0.885498046875-0.7265625t1.142822265625-0.416259765625t1.150390625-0.13623046875q0.40869140625,0,1.08984375,0.12109375t1.33203125,0.36328125t1.127685546875,0.6357421875t0.476806640625,0.92333984375q0,0.2421875-0.181640625,0.431396484375t-0.37841796875,0.189208984375q-0.40869140625,0-0.74169921875-0.264892578125t-0.688720703125-0.56005859375t-0.779541015625-0.56005859375t-0.95361328125-0.264892578125t-0.961181640625,0.340576171875t-0.431396484375,0.900634765625q0,0.92333984375,0.65087890625,1.808837890625t1.430419921875,1.86181640625t1.430419921875,2.051025390625t0.65087890625,2.37646484375q0,0.56005859375-0.234619140625,0.946044921875t-0.62060546875,0.628173828125t-0.870361328125,0.370849609375t-0.9384765625,0.128662109375q-0.49951171875,0-1.16552734375-0.234619140625t-1.25634765625-0.62060546875t-0.991455078125-0.900634765625t-0.401123046875-1.07470703125q0-0.2724609375,0.385986328125-0.34814453125t0.567626953125-0.07568359375q0.0908203125,0,0.280029296875,0.060546875t0.370849609375,0.13623046875t0.325439453125,0.16650390625t0.113525390625,0.19677734375q0.1513671875,0.181640625,0.461669921875,0.537353515625t0.62060546875,0.5751953125t0.544921875,0.158935546875t0.234619140625-0.68115234375q0-1.1806640625-0.6357421875-2.172119140625t-1.385009765625-1.9375t-1.385009765625-1.876953125t-0.6357421875-1.990478515625z M76.010029296875,30.474609375q0-1.0595703125,0.234619140625-2.49755859375t0.794677734375-2.724609375t1.475830078125-2.187255859375t2.308349609375-0.900634765625q1.3017578125,0,1.95263671875,0.749267578125t0.65087890625,2.020751953125q0,0.83251953125-0.310302734375,1.823974609375t-0.885498046875,1.876953125t-1.3623046875,1.475830078125t-1.755859375,0.59033203125l-0.3935546875-0.0302734375q0,0.40869140625,0.12109375,1.097412109375t0.355712890625,1.369873046875t0.60546875,1.19580078125t0.900634765625,0.5146484375q0.77197265625,0,1.4833984375-0.62060546875t1.34716796875-1.37744140625t1.1806640625-1.37744140625t0.9990234375-0.62060546875q0.2421875,0,0.49951171875,0.07568359375t0.28759765625,0.423828125q0,0.2119140625-0.113525390625,0.34814453125t-0.204345703125,0.302734375q-0.46923828125,0.80224609375-1.021728515625,1.52880859375t-1.248779296875,1.31689453125t-1.521240234375,0.930908203125t-1.823974609375,0.340576171875q-1.3017578125,0-2.16455078125-0.461669921875t-1.392578125-1.2412109375t-0.764404296875-1.80126953125t-0.234619140625-2.141845703125z M78.719501953125,29.32421875l0.423828125,0.37841796875q0.302734375,0.2724609375,0.60546875,0.12109375t0.544921875-0.552490234375t0.446533203125-0.991455078125t0.36328125-1.2109375t0.234619140625-1.2109375t0.07568359375-0.98388671875l0-0.5146484375t-0.04541015625-0.544921875t-0.158935546875-0.431396484375t-0.355712890625-0.219482421875q-0.07568359375-0.01513671875-0.13623046875-0.01513671875q-0.5146484375,0-0.8779296875,0.65087890625q-0.3935546875,0.7265625-0.6357421875,1.763427734375t-0.34814453125,2.126708984375t-0.13623046875,1.634765625z M88.659331054687,35.2275390625q0-0.43896484375,0.037841796875-0.92333984375t0.068115234375-0.908203125l0.0908203125-2.2705078125q0.1513671875-2.724609375,0.370849609375-5.3583984375t0.370849609375-5.328125q0.0908203125-1.4833984375,0.13623046875-2.913818359375t0.13623046875-2.913818359375q-0.060546875-0.12109375-0.060546875-0.16650390625q0-0.2119140625,0.158935546875-0.3330078125t0.370849609375-0.204345703125t0.446533203125-0.113525390625t0.355712890625-0.0302734375l0.34814453125,0q0.46923828125,0.060546875,0.68115234375,0.295166015625t0.2724609375,0.56005859375t0.0302734375,0.6962890625t-0.0302734375,0.688720703125q0,2.19482421875-0.10595703125,4.472900390625t-0.2421875,4.5712890625t-0.249755859375,4.58642578125t-0.113525390625,4.533447265625l0,1.0595703125q0,0.71142578125-0.401123046875,0.9384765625t-1.112548828125,0.22705078125q-0.62060546875,0-1.08984375-0.2724609375t-0.46923828125-0.89306640625z M95.60208984375,35.2275390625q0-0.43896484375,0.037841796875-0.92333984375t0.068115234375-0.908203125l0.0908203125-2.2705078125q0.1513671875-2.724609375,0.370849609375-5.3583984375t0.370849609375-5.328125q0.0908203125-1.4833984375,0.13623046875-2.913818359375t0.13623046875-2.913818359375q-0.060546875-0.12109375-0.060546875-0.16650390625q0-0.2119140625,0.158935546875-0.3330078125t0.370849609375-0.204345703125t0.446533203125-0.113525390625t0.355712890625-0.0302734375l0.34814453125,0q0.46923828125,0.060546875,0.68115234375,0.295166015625t0.2724609375,0.56005859375t0.0302734375,0.6962890625t-0.0302734375,0.688720703125q0,2.19482421875-0.10595703125,4.472900390625t-0.2421875,4.5712890625t-0.249755859375,4.58642578125t-0.113525390625,4.533447265625l0,1.0595703125q0,0.71142578125-0.401123046875,0.9384765625t-1.112548828125,0.22705078125q-0.62060546875,0-1.08984375-0.2724609375t-0.46923828125-0.89306640625z"/><path fill="#" d=""/></svg>
